<?xml version="1.0" standalone="no"?>
<!DOCTYPE svg PUBLIC "-//W3C//DTD SVG 20010904//EN"
 "http://www.w3.org/TR/2001/REC-SVG-20010904/DTD/svg10.dtd">
<svg version="1.0" xmlns="http://www.w3.org/2000/svg"
 width="700.000000pt" height="700.000000pt" viewBox="0 0 700.000000 700.000000"
 preserveAspectRatio="xMidYMid meet">
<metadata>
Created by potrace 1.14, written by Peter Selinger 2001-2017
</metadata>
<g transform="translate(0.000000,700.000000) scale(0.100000,-0.100000)"
fill="#000000" stroke="none">
<path d="M3142 6312 c-11 -15 -30 -47 -44 -72 -14 -25 -119 -214 -235 -420
-115 -206 -221 -395 -235 -420 -14 -25 -88 -157 -165 -295 -77 -137 -217 -387
-311 -555 -93 -168 -179 -321 -191 -340 -11 -19 -25 -44 -30 -55 -5 -11 -43
-80 -85 -154 -42 -73 -76 -135 -76 -137 0 -3 -10 -21 -23 -42 -13 -20 -40 -67
-61 -105 -200 -367 -290 -514 -397 -648 -64 -80 -166 -180 -227 -222 -83 -57
-230 -110 -280 -102 -31 5 -53 -14 -50 -43 3 -27 4 -27 73 -26 39 1 135 5 215
9 188 11 316 11 525 1 350 -16 322 -18 330 24 5 27 -3 30 -87 35 -40 2 -84 7
-98 10 -14 2 -38 7 -55 11 -54 11 -96 45 -118 92 -37 86 -7 220 98 434 31 62
63 127 73 143 9 17 44 79 77 140 33 60 175 319 316 575 l255 465 442 3 c243 1
442 1 442 -1 0 -2 4 -28 10 -58 5 -30 11 -70 14 -89 7 -48 47 -319 52 -350 2
-14 6 -45 9 -70 3 -25 7 -52 10 -60 2 -8 7 -37 10 -65 4 -27 8 -61 10 -74 2
-13 7 -45 11 -70 4 -25 8 -55 10 -66 2 -11 7 -40 9 -65 3 -25 8 -52 10 -60 2
-8 7 -35 10 -60 5 -40 20 -142 30 -209 3 -13 7 -45 11 -70 3 -25 8 -57 10 -71
3 -14 7 -68 11 -122 15 -245 -60 -308 -375 -317 -31 -1 -33 -3 -30 -33 l3 -33
75 1 c41 1 152 5 245 10 208 10 305 10 505 -1 85 -4 191 -8 235 -9 77 -1 80 0
83 23 2 13 0 27 -5 32 -5 5 -47 11 -93 14 -142 10 -205 32 -264 92 -52 54 -78
140 -112 373 -3 19 -12 73 -19 120 -8 47 -17 105 -20 130 -3 25 -7 56 -10 70
-6 30 -9 54 -30 198 -9 62 -18 121 -20 130 -1 9 -6 40 -9 67 -4 28 -9 57 -11
65 -2 8 -7 38 -10 65 -3 28 -10 75 -15 105 -5 30 -12 75 -15 100 -8 59 -14 99
-20 130 -3 14 -7 41 -9 60 -3 19 -9 64 -15 100 -6 36 -13 88 -16 115 -4 28 -8
57 -10 65 -2 8 -7 35 -10 60 -3 25 -10 68 -15 95 -5 28 -11 70 -14 95 -3 25
-8 61 -11 80 -15 88 -57 363 -70 460 -2 14 -11 72 -19 130 -9 58 -18 120 -21
139 -3 19 -7 43 -10 55 -5 25 -13 80 -20 144 -3 26 -8 54 -10 62 -2 8 -7 38
-11 65 -3 28 -8 57 -9 65 -2 9 -6 41 -10 73 -8 63 -18 76 -64 82 -24 3 -35 -2
-49 -23z m-97 -507 c6 -49 32 -225 40 -275 2 -14 7 -45 10 -70 3 -25 10 -70
15 -100 5 -30 12 -75 15 -100 3 -25 10 -70 15 -100 5 -30 12 -77 15 -105 4
-27 8 -57 10 -65 2 -8 7 -37 11 -65 3 -27 8 -57 9 -65 2 -9 6 -41 10 -73 l7
-57 -401 0 c-220 0 -401 2 -401 5 0 2 42 80 94 172 51 93 109 197 128 233 80
148 102 187 120 218 11 18 36 63 57 101 130 242 226 410 232 403 4 -4 10 -29
14 -57z"/>
<path d="M5258 4398 c-9 -7 -51 -76 -93 -153 -43 -77 -130 -232 -193 -345 -63
-113 -129 -230 -145 -260 -17 -30 -188 -336 -380 -680 -193 -344 -359 -641
-369 -660 -11 -19 -27 -48 -37 -65 -9 -16 -65 -115 -123 -220 -410 -736 -448
-798 -589 -949 -149 -159 -284 -235 -444 -251 -16 -1 -33 -3 -36 -4 -4 0 -9
-10 -12 -21 -7 -29 16 -48 55 -45 259 20 598 24 823 11 264 -16 265 -16 265
30 0 18 -6 24 -22 25 -86 4 -199 20 -240 35 -133 47 -146 170 -45 418 19 46
108 221 169 331 31 55 70 127 88 160 47 86 308 562 338 615 57 104 98 179 133
245 l38 70 444 3 445 2 7 -52 c4 -29 9 -62 10 -73 2 -11 7 -40 10 -65 3 -25
12 -85 20 -135 8 -49 17 -108 20 -130 38 -259 47 -315 51 -345 2 -19 9 -60 14
-90 5 -30 12 -75 15 -100 3 -25 8 -56 10 -70 3 -14 7 -43 10 -65 2 -22 7 -51
10 -65 3 -14 7 -41 9 -60 3 -19 12 -84 22 -145 21 -141 22 -298 1 -345 -39
-90 -126 -127 -316 -134 -65 -3 -73 -7 -77 -33 -6 -41 0 -42 251 -27 160 9
468 9 635 0 233 -13 250 -13 261 0 11 13 4 53 -9 55 -4 1 -29 2 -57 4 -265 12
-351 90 -390 355 -7 53 -34 230 -40 275 -3 22 -10 65 -15 95 -5 30 -12 75 -15
100 -3 25 -14 99 -25 165 -10 66 -24 154 -29 195 -6 41 -13 86 -16 100 -3 14
-7 45 -10 70 -3 25 -7 52 -10 60 -2 8 -6 38 -10 65 -3 28 -12 88 -20 135 -7
47 -16 106 -20 131 -3 25 -8 57 -10 70 -5 31 -11 74 -35 234 -23 153 -30 202
-35 231 -2 12 -7 48 -11 80 -4 33 -9 61 -9 64 -1 3 -5 28 -9 55 -4 28 -11 73
-16 100 -5 28 -11 66 -14 85 -9 67 -19 135 -22 152 -1 9 -6 38 -10 65 -3 26
-8 56 -10 65 -1 9 -10 68 -19 130 -9 62 -18 124 -20 138 -18 106 -20 123 -29
190 -3 25 -8 54 -10 65 -2 11 -7 39 -11 63 -5 33 -13 45 -32 53 -32 12 -46 11
-65 -3z m-103 -558 c3 -25 7 -52 10 -60 2 -8 6 -42 10 -75 3 -33 8 -69 10 -80
3 -11 7 -38 10 -59 3 -21 7 -48 10 -60 2 -12 7 -43 10 -71 3 -27 8 -57 10 -65
2 -8 6 -35 9 -60 5 -42 41 -283 51 -340 3 -14 7 -50 11 -80 3 -30 8 -63 9 -72
3 -16 -25 -17 -396 -17 -219 1 -399 5 -399 9 0 5 71 136 157 292 172 311 165
298 343 622 138 250 129 243 145 116z"/>
</g>
</svg>
